<svg width="661" height="661" viewBox="0 0 661 661" fill="none" xmlns="http://www.w3.org/2000/svg">
<path d="M315.086 162.095C272.138 162.095 234.566 177.33 204.201 206.744C179.858 230.216 166.604 264.386 163.446 308.626H129.935L119.99 351.307H163.43C166.432 392.966 178.624 427.094 200.539 453.19C225.681 482.94 264.856 497.855 315.086 497.855C345.356 497.855 366.24 494.869 378.594 484.652C394.664 471.453 402.927 462.531 412.545 446.296C416.281 456.016 421.446 459.568 428.202 465.71L428.284 465.773C446.694 482.111 467.32 491.024 489.171 491.024H531.537V433.449H496.023C493.582 433.449 487.538 430.906 479.78 422.847C473.399 416.214 469.613 409.297 468.029 401.645L457.645 351.306L531.537 351.303V308.62H467.516L522.39 168.921H454.196L431.15 231.863C423.759 211.553 412.924 197.65 397.215 185.669C376.403 169.795 348.555 162.095 315.086 162.095ZM315.086 219.67C364.301 219.67 373.353 251.372 382.678 308.623L240.561 308.626C246.212 252.435 268.512 219.67 315.086 219.67ZM240.121 351.307L382.678 351.306C375.915 398.68 353.036 441.386 315.105 441.386C262.363 441.386 246.003 407.067 240.121 351.307Z" fill="black"/>
<path fill-rule="evenodd" clip-rule="evenodd" d="M661 0H0V661H661V0ZM583.111 77.8885H77.8885V583.111H583.111V77.8885Z" fill="black"/>
</svg>
